<svg width="8" height="8" viewBox="0 0 8 8" fill="none" xmlns="http://www.w3.org/2000/svg">
<path d="M7.5 3.5H4.5V0.5C4.5 0.367392 4.44732 0.240215 4.35355 0.146447C4.25979 0.0526785 4.13261 0 4 0C3.86739 0 3.74021 0.0526785 3.64645 0.146447C3.55268 0.240215 3.5 0.367392 3.5 0.5V3.5H0.5C0.367392 3.5 0.240215 3.55268 0.146447 3.64645C0.0526785 3.74021 0 3.86739 0 4C0 4.13261 0.0526785 4.25979 0.146447 4.35355C0.240215 4.44732 0.367392 4.5 0.5 4.5H3.5V7.5C3.5 7.63261 3.55268 7.75979 3.64645 7.85355C3.74021 7.94732 3.86739 8 4 8C4.13261 8 4.25979 7.94732 4.35355 7.85355C4.44732 7.75979 4.5 7.63261 4.5 7.5V4.5H7.5C7.63261 4.5 7.75979 4.44732 7.85355 4.35355C7.94732 4.25979 8 4.13261 8 4C8 3.86739 7.94732 3.74021 7.85355 3.64645C7.75979 3.55268 7.63261 3.5 7.5 3.5Z" fill="white"/>
</svg>
